<svg width="13" height="12" viewBox="0 0 13 12" fill="none" xmlns="http://www.w3.org/2000/svg">
<path fill="#55A9E7" d="M11.9948 6.81416C12.409 6.81682 12.7469 6.4832 12.7496 6.06899C12.7522 5.65479 12.4186 5.31685 12.0044 5.31419L11.9948 6.81416ZM0.473124 5.45986C0.178357 5.75087 0.17531 6.22573 0.466317 6.5205L5.20856 11.324C5.49956 11.6188 5.97443 11.6218 6.26919 11.3308C6.56396 11.0398 6.56701 10.5649 6.276 10.2702L2.06068 6.00039L6.33046 1.78507C6.62523 1.49406 6.62828 1.01919 6.33727 0.724427C6.04626 0.42966 5.5714 0.426612 5.27663 0.71762L0.473124 5.45986ZM12.0044 5.31419L1.00485 5.2436L0.995226 6.74357L11.9948 6.81416L12.0044 5.31419Z" />
</svg>
