<svg width="22" height="22" viewBox="0 0 22 22" fill="none" xmlns="http://www.w3.org/2000/svg">
<path d="M6.22617 15.7087L1.57383 13.259C0.870701 12.9621 0.780857 11.9777 1.48789 11.5715L19.5934 1.1262C20.2691 0.735576 21.1168 1.30589 20.984 2.09495L18.1715 18.9699C18.0699 19.5676 17.4371 19.9152 16.8824 19.6809L11 17.6802M6.22617 15.7087L15.438 7.12069C15.4778 7.08351 15.5303 7.06284 15.5848 7.06284V7.06284C15.7594 7.06284 15.8614 7.25957 15.7609 7.40226L9.7695 15.9076C9.38508 16.4533 9.63306 17.2153 10.265 17.4302L11 17.6802M6.22617 15.7087L7.07203 20.2183C7.23379 21.0807 8.34849 21.3316 8.86405 20.6216L11 17.6802" stroke="black" stroke-width="1.3"/>
</svg>
