<svg width="20" height="23" viewBox="0 0 20 23" fill="none" xmlns="http://www.w3.org/2000/svg">
<path fillRule="evenodd" clipRule="evenodd" d="M18.5 4C18.5 5.38071 17.3807 6.5 16 6.5C14.6193 6.5 13.5 5.38071 13.5 4C13.5 2.61929 14.6193 1.5 16 1.5C17.3807 1.5 18.5 2.61929 18.5 4ZM20 4C20 6.20914 18.2091 8 16 8C14.736 8 13.6089 7.41367 12.8758 6.49815L7.56153 10.1773C7.84183 10.7239 8 11.3435 8 12C8 12.6413 7.8491 13.2473 7.58086 13.7845L12.6084 16.8784C13.3156 15.7502 14.5702 15 16 15C18.2091 15 20 16.7909 20 19C20 21.2091 18.2091 23 16 23C13.7909 23 12 21.2091 12 19C12 18.7621 12.0208 18.529 12.0606 18.3025L6.66553 14.9825C5.95799 15.6153 5.02392 16 4 16C1.79086 16 0 14.2091 0 12C0 9.79086 1.79086 8 4 8C5.01044 8 5.93337 8.37466 6.63746 8.99264L12.1713 5.16155C12.0599 4.79395 12 4.40397 12 4C12 1.79086 13.7909 0 16 0C18.2091 0 20 1.79086 20 4ZM6.5 12C6.5 13.3807 5.38071 14.5 4 14.5C2.61929 14.5 1.5 13.3807 1.5 12C1.5 10.6193 2.61929 9.5 4 9.5C5.38071 9.5 6.5 10.6193 6.5 12ZM16 21.5C17.3807 21.5 18.5 20.3807 18.5 19C18.5 17.6193 17.3807 16.5 16 16.5C14.6193 16.5 13.5 17.6193 13.5 19C13.5 20.3807 14.6193 21.5 16 21.5Z" fill="#C4C4C4" />
</svg>
