<svg width="20" height="20" viewBox="0 0 20 20" fill="none" xmlns="http://www.w3.org/2000/svg">
<path d="M14.3929 5C14.3929 7.32773 12.4465 9.25 10 9.25C7.55353 9.25 5.60714 7.32773 5.60714 5C5.60714 2.67227 7.55353 0.75 10 0.75C12.4465 0.75 14.3929 2.67227 14.3929 5ZM10 12.625C11.0956 12.625 12.1393 12.3993 13.0848 12H13.6C16.1871 12 18.25 14.0356 18.25 16.5V18.125C18.25 18.7262 17.742 19.25 17.0714 19.25H2.92857C2.258 19.25 1.75 18.7262 1.75 18.125V16.5C1.75 14.0356 3.81291 12 6.4 12H6.91575C7.86339 12.3989 8.90345 12.625 10 12.625Z" stroke="black" stroke-width="1.5"/>
</svg>
